<mxfile host="app.diagrams.net" modified="2024-05-14T09:14:22.214Z" agent="Mozilla/5.0 (Windows NT 10.0; Win64; x64; rv:109.0) Gecko/20100101 Firefox/115.0" etag="jwSKaShojVVaE3OENCU5" version="24.4.0" type="github">
  <diagram name="Page-1" id="flhlwfk6ptNWO5uqMDNu">
    <mxGraphModel dx="1050" dy="566" grid="1" gridSize="10" guides="1" tooltips="1" connect="1" arrows="1" fold="1" page="1" pageScale="1" pageWidth="850" pageHeight="1100" math="0" shadow="0">
      <root>
        <mxCell id="0" />
        <mxCell id="1" parent="0" />
        <mxCell id="Wpj1xUUIyIjZzfeGu-CL-1" value="VPC" style="sketch=0;outlineConnect=0;gradientColor=none;html=1;whiteSpace=wrap;fontSize=12;fontStyle=0;shape=mxgraph.aws4.group;grIcon=mxgraph.aws4.group_vpc;strokeColor=#879196;fillColor=none;verticalAlign=top;align=left;spacingLeft=30;fontColor=#879196;dashed=0;" vertex="1" parent="1">
          <mxGeometry x="290" y="660" width="540" height="350" as="geometry" />
        </mxCell>
        <mxCell id="Wpj1xUUIyIjZzfeGu-CL-41" style="edgeStyle=orthogonalEdgeStyle;rounded=0;orthogonalLoop=1;jettySize=auto;html=1;" edge="1" parent="1" source="Wpj1xUUIyIjZzfeGu-CL-4" target="Wpj1xUUIyIjZzfeGu-CL-26">
          <mxGeometry relative="1" as="geometry" />
        </mxCell>
        <mxCell id="Wpj1xUUIyIjZzfeGu-CL-4" value="Amazon Route 53" style="sketch=0;outlineConnect=0;fontColor=#232F3E;gradientColor=none;strokeColor=#ffffff;fillColor=#232F3E;dashed=0;verticalLabelPosition=middle;verticalAlign=bottom;align=center;html=1;whiteSpace=wrap;fontSize=10;fontStyle=1;spacing=3;shape=mxgraph.aws4.productIcon;prIcon=mxgraph.aws4.route_53;" vertex="1" parent="1">
          <mxGeometry x="180" y="780" width="60" height="70" as="geometry" />
        </mxCell>
        <mxCell id="Wpj1xUUIyIjZzfeGu-CL-9" style="edgeStyle=orthogonalEdgeStyle;rounded=0;orthogonalLoop=1;jettySize=auto;html=1;" edge="1" parent="1" source="Wpj1xUUIyIjZzfeGu-CL-8" target="Wpj1xUUIyIjZzfeGu-CL-4">
          <mxGeometry relative="1" as="geometry" />
        </mxCell>
        <mxCell id="Wpj1xUUIyIjZzfeGu-CL-8" value="" style="sketch=0;outlineConnect=0;fontColor=#232F3E;gradientColor=none;fillColor=#232F3D;strokeColor=none;dashed=0;verticalLabelPosition=bottom;verticalAlign=top;align=center;html=1;fontSize=12;fontStyle=0;aspect=fixed;pointerEvents=1;shape=mxgraph.aws4.users;" vertex="1" parent="1">
          <mxGeometry x="82.5" y="787.5" width="55" height="55" as="geometry" />
        </mxCell>
        <mxCell id="Wpj1xUUIyIjZzfeGu-CL-12" value="" style="outlineConnect=0;dashed=0;verticalLabelPosition=bottom;verticalAlign=top;align=center;html=1;shape=mxgraph.aws3.application_load_balancer;fillColor=#F58534;gradientColor=none;" vertex="1" parent="1">
          <mxGeometry x="342.5" y="788" width="60" height="52" as="geometry" />
        </mxCell>
        <mxCell id="Wpj1xUUIyIjZzfeGu-CL-15" value="" style="outlineConnect=0;dashed=0;verticalLabelPosition=bottom;verticalAlign=top;align=center;html=1;shape=mxgraph.aws3.ec2;fillColor=#F58534;gradientColor=none;" vertex="1" parent="1">
          <mxGeometry x="442.5" y="777.5" width="50" height="72.5" as="geometry" />
        </mxCell>
        <mxCell id="Wpj1xUUIyIjZzfeGu-CL-16" style="edgeStyle=orthogonalEdgeStyle;rounded=0;orthogonalLoop=1;jettySize=auto;html=1;entryX=0;entryY=0.5;entryDx=0;entryDy=0;entryPerimeter=0;" edge="1" parent="1" source="Wpj1xUUIyIjZzfeGu-CL-12" target="Wpj1xUUIyIjZzfeGu-CL-15">
          <mxGeometry relative="1" as="geometry" />
        </mxCell>
        <mxCell id="Wpj1xUUIyIjZzfeGu-CL-20" value="Private Subnet" style="sketch=0;outlineConnect=0;html=1;whiteSpace=wrap;fontSize=12;fontStyle=0;shape=mxgraph.aws4.group;grIcon=mxgraph.aws4.group_subnet;strokeColor=#36393d;fillColor=#cce5ff;verticalAlign=top;align=left;spacingLeft=30;dashed=0;" vertex="1" parent="1">
          <mxGeometry x="612.5" y="720" width="210" height="150" as="geometry" />
        </mxCell>
        <mxCell id="Wpj1xUUIyIjZzfeGu-CL-53" style="edgeStyle=orthogonalEdgeStyle;rounded=0;orthogonalLoop=1;jettySize=auto;html=1;entryX=0;entryY=0.5;entryDx=0;entryDy=0;" edge="1" parent="1" source="Wpj1xUUIyIjZzfeGu-CL-19" target="Wpj1xUUIyIjZzfeGu-CL-49">
          <mxGeometry relative="1" as="geometry" />
        </mxCell>
        <mxCell id="Wpj1xUUIyIjZzfeGu-CL-19" value="Public Subnet" style="sketch=0;outlineConnect=0;html=1;whiteSpace=wrap;fontSize=12;fontStyle=0;shape=mxgraph.aws4.group;grIcon=mxgraph.aws4.group_subnet;verticalAlign=top;align=left;spacingLeft=30;dashed=0;fillColor=none;strokeColor=#36393d;" vertex="1" parent="1">
          <mxGeometry x="339" y="720" width="172.5" height="150" as="geometry" />
        </mxCell>
        <mxCell id="Wpj1xUUIyIjZzfeGu-CL-25" value="" style="rounded=0;whiteSpace=wrap;html=1;fillColor=none;fontFamily=Times New Roman;" vertex="1" parent="1">
          <mxGeometry x="150" y="620" width="690" height="420" as="geometry" />
        </mxCell>
        <mxCell id="Wpj1xUUIyIjZzfeGu-CL-46" style="edgeStyle=orthogonalEdgeStyle;rounded=0;orthogonalLoop=1;jettySize=auto;html=1;" edge="1" parent="1" source="Wpj1xUUIyIjZzfeGu-CL-26" target="Wpj1xUUIyIjZzfeGu-CL-19">
          <mxGeometry relative="1" as="geometry" />
        </mxCell>
        <mxCell id="Wpj1xUUIyIjZzfeGu-CL-26" value="Internet&#xa;gateway" style="sketch=0;outlineConnect=0;fontColor=#232F3E;gradientColor=none;strokeColor=#232F3E;fillColor=#ffffff;dashed=0;verticalLabelPosition=bottom;verticalAlign=top;align=center;html=1;fontSize=12;fontStyle=0;aspect=fixed;shape=mxgraph.aws4.resourceIcon;resIcon=mxgraph.aws4.internet_gateway;" vertex="1" parent="1">
          <mxGeometry x="270" y="830" width="40" height="40" as="geometry" />
        </mxCell>
        <mxCell id="Wpj1xUUIyIjZzfeGu-CL-29" style="edgeStyle=orthogonalEdgeStyle;rounded=0;orthogonalLoop=1;jettySize=auto;html=1;" edge="1" parent="1" source="Wpj1xUUIyIjZzfeGu-CL-27" target="Wpj1xUUIyIjZzfeGu-CL-20">
          <mxGeometry relative="1" as="geometry">
            <Array as="points">
              <mxPoint x="562" y="741" />
              <mxPoint x="562" y="795" />
            </Array>
          </mxGeometry>
        </mxCell>
        <mxCell id="Wpj1xUUIyIjZzfeGu-CL-27" value="" style="sketch=0;outlineConnect=0;gradientColor=none;strokeColor=#232F3E;fillColor=#ffffff;dashed=0;verticalLabelPosition=bottom;verticalAlign=top;align=center;aspect=fixed;shape=mxgraph.aws4.resourceIcon;resIcon=mxgraph.aws4.nat_gateway;html=1;" vertex="1" parent="1">
          <mxGeometry x="469.5" y="720" width="42" height="42" as="geometry" />
        </mxCell>
        <mxCell id="Wpj1xUUIyIjZzfeGu-CL-32" style="edgeStyle=orthogonalEdgeStyle;rounded=0;orthogonalLoop=1;jettySize=auto;html=1;" edge="1" parent="1" source="Wpj1xUUIyIjZzfeGu-CL-30" target="Wpj1xUUIyIjZzfeGu-CL-31">
          <mxGeometry relative="1" as="geometry" />
        </mxCell>
        <mxCell id="Wpj1xUUIyIjZzfeGu-CL-35" value="" style="edgeStyle=orthogonalEdgeStyle;rounded=0;orthogonalLoop=1;jettySize=auto;html=1;" edge="1" parent="1" source="Wpj1xUUIyIjZzfeGu-CL-31" target="Wpj1xUUIyIjZzfeGu-CL-34">
          <mxGeometry relative="1" as="geometry" />
        </mxCell>
        <mxCell id="Wpj1xUUIyIjZzfeGu-CL-30" value="" style="sketch=0;outlineConnect=0;fontColor=#232F3E;gradientColor=none;fillColor=#7AA116;strokeColor=none;dashed=0;verticalLabelPosition=bottom;verticalAlign=top;align=center;html=1;fontSize=12;fontStyle=0;aspect=fixed;pointerEvents=1;shape=mxgraph.aws4.bucket;" vertex="1" parent="1">
          <mxGeometry x="630" y="762" width="40.86" height="42.5" as="geometry" />
        </mxCell>
        <mxCell id="Wpj1xUUIyIjZzfeGu-CL-34" value="" style="sketch=0;outlineConnect=0;fontColor=#232F3E;gradientColor=none;fillColor=#7AA116;strokeColor=none;dashed=0;verticalLabelPosition=bottom;verticalAlign=top;align=center;html=1;fontSize=12;fontStyle=0;aspect=fixed;pointerEvents=1;shape=mxgraph.aws4.bucket;" vertex="1" parent="1">
          <mxGeometry x="759.14" y="820" width="40.86" height="42.5" as="geometry" />
        </mxCell>
        <mxCell id="Wpj1xUUIyIjZzfeGu-CL-44" value="AWS CLOUD" style="text;html=1;align=center;verticalAlign=middle;resizable=0;points=[];autosize=1;strokeColor=none;fillColor=none;" vertex="1" parent="1">
          <mxGeometry x="150" y="620" width="90" height="30" as="geometry" />
        </mxCell>
        <mxCell id="Wpj1xUUIyIjZzfeGu-CL-47" value="" style="edgeStyle=orthogonalEdgeStyle;rounded=0;orthogonalLoop=1;jettySize=auto;html=1;" edge="1" parent="1" source="Wpj1xUUIyIjZzfeGu-CL-30" target="Wpj1xUUIyIjZzfeGu-CL-31">
          <mxGeometry relative="1" as="geometry">
            <mxPoint x="671" y="783" as="sourcePoint" />
            <mxPoint x="781" y="840" as="targetPoint" />
          </mxGeometry>
        </mxCell>
        <mxCell id="Wpj1xUUIyIjZzfeGu-CL-31" value="" style="outlineConnect=0;dashed=0;verticalLabelPosition=bottom;verticalAlign=top;align=center;html=1;shape=mxgraph.aws3.lambda_function;fillColor=#F58534;gradientColor=none;" vertex="1" parent="1">
          <mxGeometry x="760" y="762" width="40" height="42.5" as="geometry" />
        </mxCell>
        <mxCell id="Wpj1xUUIyIjZzfeGu-CL-48" value="Amazon EKS" style="sketch=0;outlineConnect=0;fontColor=#232F3E;gradientColor=none;strokeColor=#ffffff;fillColor=#232F3E;dashed=0;verticalLabelPosition=middle;verticalAlign=bottom;align=center;html=1;whiteSpace=wrap;fontSize=10;fontStyle=1;spacing=3;shape=mxgraph.aws4.productIcon;prIcon=mxgraph.aws4.eks;" vertex="1" parent="1">
          <mxGeometry x="520" y="900" width="37.5" height="40" as="geometry" />
        </mxCell>
        <mxCell id="Wpj1xUUIyIjZzfeGu-CL-49" value="" style="rounded=0;whiteSpace=wrap;html=1;fillColor=none;" vertex="1" parent="1">
          <mxGeometry x="520" y="900" width="220" height="100" as="geometry" />
        </mxCell>
        <mxCell id="Wpj1xUUIyIjZzfeGu-CL-52" value="" style="edgeStyle=orthogonalEdgeStyle;rounded=0;orthogonalLoop=1;jettySize=auto;html=1;" edge="1" parent="1" source="Wpj1xUUIyIjZzfeGu-CL-50" target="Wpj1xUUIyIjZzfeGu-CL-51">
          <mxGeometry relative="1" as="geometry" />
        </mxCell>
        <mxCell id="Wpj1xUUIyIjZzfeGu-CL-50" value="Amazon EC2" style="sketch=0;outlineConnect=0;fontColor=#232F3E;gradientColor=none;strokeColor=#ffffff;fillColor=#232F3E;dashed=0;verticalLabelPosition=middle;verticalAlign=bottom;align=center;html=1;whiteSpace=wrap;fontSize=10;fontStyle=1;spacing=3;shape=mxgraph.aws4.productIcon;prIcon=mxgraph.aws4.ec2;" vertex="1" parent="1">
          <mxGeometry x="590" y="910" width="40" height="60" as="geometry" />
        </mxCell>
        <mxCell id="Wpj1xUUIyIjZzfeGu-CL-51" value="Amazon EC2" style="sketch=0;outlineConnect=0;fontColor=#232F3E;gradientColor=none;strokeColor=#ffffff;fillColor=#232F3E;dashed=0;verticalLabelPosition=middle;verticalAlign=bottom;align=center;html=1;whiteSpace=wrap;fontSize=10;fontStyle=1;spacing=3;shape=mxgraph.aws4.productIcon;prIcon=mxgraph.aws4.ec2;" vertex="1" parent="1">
          <mxGeometry x="670.86" y="910" width="40" height="60" as="geometry" />
        </mxCell>
        <mxCell id="Wpj1xUUIyIjZzfeGu-CL-54" value="" style="outlineConnect=0;dashed=0;verticalLabelPosition=bottom;verticalAlign=top;align=center;html=1;shape=mxgraph.aws3.route_table;fillColor=#F58536;gradientColor=none;" vertex="1" parent="1">
          <mxGeometry x="330" y="750" width="30.5" height="30" as="geometry" />
        </mxCell>
        <mxCell id="Wpj1xUUIyIjZzfeGu-CL-57" value="" style="outlineConnect=0;dashed=0;verticalLabelPosition=bottom;verticalAlign=top;align=center;html=1;shape=mxgraph.aws3.route_table;fillColor=#F58536;gradientColor=none;" vertex="1" parent="1">
          <mxGeometry x="592.5" y="824" width="37.5" height="34.5" as="geometry" />
        </mxCell>
      </root>
    </mxGraphModel>
  </diagram>
</mxfile>
